<svg id="kity_svg_6" xmlns="http://www.w3.org/2000/svg" xmlns:xlink="http://www.w3.org/1999/xlink" version="1.1" width="2197" height="638" style="background: rgb(251, 251, 251); visibility: visible;" viewBox="0 0 2197 638"><defs id="kity_defs_7"><linearGradient id="kity_linearGradient_17" x1="0" y1="0" x2="0" y2="1"><stop id="kity_stop_18" offset="0" stop-color="rgb(255, 255, 255)"></stop><stop id="kity_stop_19" offset="1" stop-color="rgb(204, 204, 204)"></stop></linearGradient><marker id="kity_marker_2" orient="auto" refX="6" refY="0" viewBox="-7 -7 14 14" markerWidth="7" markerHeight="7" markerUnits="userSpaceOnUse"><path id="kity_path_3" fill="rgb(115, 161, 191)" stroke="none" d="M6,0A6,6,0,1,1,-6,0A6,6,0,1,1,6,0"></path></marker></defs><g id="kity_g_8"><g id="minder1" text-rendering="optimize-speed"><g id="minder_connect_group1"><path id="kity_path_31" fill="none" stroke="rgb(115, 161, 191)" stroke-width="1" d="M753.5000114366412,390.50000443309546A175,149,0,0,1,928.5000114366412,241.50000443309546"></path><path id="kity_path_33" fill="none" stroke="rgb(115, 161, 191)" stroke-width="1" d="M999.5000114366412,241.50000443309546C1014.5000114366412,241.50000443309546,1014.5000114366412,255.50000443309546,1029.5000114366412,255.50000443309546L1085.5000114366412,255.50000443309546"></path><path id="kity_path_35" fill="none" stroke="rgb(115, 161, 191)" stroke-width="1" d="M1085.5000114366412,255.50000443309546C1100.5000114366412,255.50000443309546,1100.5000114366412,181.50000443309546,1115.5000114366412,181.50000443309546L1146.5000114366412,181.50000443309546"></path><path id="kity_path_37" fill="none" stroke="rgb(115, 161, 191)" stroke-width="1" d="M1146.5000114366412,181.50000443309546C1161.5000114366412,181.50000443309546,1161.5000114366412,117.50000443309546,1176.5000114366412,117.50000443309546L1256.5000114366412,117.50000443309546"></path><path id="kity_path_39" fill="none" stroke="rgb(115, 161, 191)" stroke-width="1" d="M1256.5000114366412,117.50000443309546C1271.5000114366412,117.50000443309546,1271.5000114366412,189.50000443309546,1286.5000114366412,189.50000443309546L1958.5000114366412,189.50000443309546"></path><path id="kity_path_41" fill="none" stroke="rgb(115, 161, 191)" stroke-width="1" d="M1146.5000114366412,181.50000443309546C1161.5000114366412,181.50000443309546,1161.5000114366412,246.50000443309546,1176.5000114366412,246.50000443309546L1267.5000114366412,246.50000443309546"></path><path id="kity_path_43" fill="none" stroke="rgb(115, 161, 191)" stroke-width="1" d="M1267.5000114366412,246.50000443309546C1282.5000114366412,246.50000443309546,1282.5000114366412,251.50000443309546,1297.5000114366412,251.50000443309546L2177.500011436641,251.50000443309546"></path><path id="kity_path_45" fill="none" stroke="rgb(115, 161, 191)" stroke-width="1" d="M1085.5000114366412,255.50000443309546C1100.5000114366412,255.50000443309546,1100.5000114366412,329.50000443309546,1115.5000114366412,329.50000443309546L1195.5000114366412,329.50000443309546"></path><path id="kity_path_47" fill="none" stroke="rgb(115, 161, 191)" stroke-width="1" d="M1195.5000114366412,329.50000443309546C1210.5000114366412,329.50000443309546,1210.5000114366412,356.50000443309546,1225.5000114366412,356.50000443309546L1759.5000114366412,356.50000443309546"></path><path id="kity_path_49" fill="none" stroke="rgb(115, 161, 191)" stroke-width="1" d="M753.5000114366412,390.50000443309546A175,16,0,0,0,928.5000114366412,406.50000443309546"></path><path id="kity_path_51" fill="none" stroke="rgb(115, 161, 191)" stroke-width="1" d="M999.5000114366412,406.50000443309546C1014.5000114366412,406.50000443309546,1014.5000114366412,420.50000443309546,1029.5000114366412,420.50000443309546L1156.5000114366412,420.50000443309546"></path><path id="kity_path_53" fill="none" stroke="rgb(115, 161, 191)" stroke-width="1" d="M753.5000114366412,390.50000443309546A175,149,0,0,0,928.5000114366412,539.5000044330955"></path><path id="kity_path_55" fill="none" stroke="rgb(115, 161, 191)" stroke-width="1" d="M998.5000114366412,539.5000044330955C1013.5000114366412,539.5000044330955,1013.5000114366412,489.50000443309546,1028.5000114366412,489.50000443309546L1099.5000114366412,489.50000443309546"></path><path id="kity_path_57" fill="none" stroke="rgb(115, 161, 191)" stroke-width="1" d="M1099.5000114366412,489.50000443309546C1114.5000114366412,489.50000443309546,1114.5000114366412,494.50000443309546,1129.5000114366412,494.50000443309546L1238.5000114366412,494.50000443309546"></path><path id="kity_path_59" fill="none" stroke="rgb(115, 161, 191)" stroke-width="1" d="M998.5000114366412,539.5000044330955C1013.5000114366412,539.5000044330955,1013.5000114366412,551.5000044330955,1028.5000114366412,551.5000044330955L1120.5000114366412,551.5000044330955"></path><path id="kity_path_61" fill="none" stroke="rgb(115, 161, 191)" stroke-width="1" d="M1120.5000114366412,551.5000044330955C1135.5000114366412,551.5000044330955,1135.5000114366412,556.5000044330955,1150.5000114366412,556.5000044330955L1282.5000114366412,556.5000044330955"></path><path id="kity_path_63" fill="none" stroke="rgb(115, 161, 191)" stroke-width="1" d="M998.5000114366412,539.5000044330955C1013.5000114366412,539.5000044330955,1013.5000114366412,618.5000044330955,1028.5000114366412,618.5000044330955L1221.5000114366412,618.5000044330955"></path><path id="kity_path_65" fill="none" stroke="rgb(115, 161, 191)" stroke-width="1" d="M753.5000114366412,390.50000443309546A174,103,0,0,0,579.5000114366412,287.50000443309546"></path><path id="kity_path_67" fill="none" stroke="rgb(115, 161, 191)" stroke-width="1" d="M507.5000114366412,287.50000443309546C492.5000114366412,287.50000443309546,492.5000114366412,256.50000443309546,477.5000114366412,256.50000443309546L398.5000114366412,256.50000443309546"></path><path id="kity_path_69" fill="none" stroke="rgb(115, 161, 191)" stroke-width="1" d="M398.5000114366412,256.50000443309546C383.5000114366412,256.50000443309546,383.5000114366412,217.50000443309546,368.5000114366412,217.50000443309546L264.5000114366412,217.50000443309546"></path><path id="kity_path_71" fill="none" stroke="rgb(115, 161, 191)" stroke-width="1" d="M264.5000114366412,217.50000443309546C249.50001143664122,217.50000443309546,249.50001143664122,217.50000443309546,234.50001143664122,217.50000443309546L130.50001143664122,217.50000443309546"></path><path id="kity_path_73" fill="none" stroke="rgb(115, 161, 191)" stroke-width="1" d="M130.50001143664122,217.50000443309546C115.50001143664122,217.50000443309546,115.50001143664122,191.50000443309546,100.50001143664122,191.50000443309546L21.500011436641216,191.50000443309546"></path><path id="kity_path_75" fill="none" stroke="rgb(115, 161, 191)" stroke-width="1" d="M130.50001143664122,217.50000443309546C115.50001143664122,217.50000443309546,115.50001143664122,243.50000443309546,100.50001143664122,243.50000443309546L20.500011436641216,243.50000443309546"></path><path id="kity_path_77" fill="none" stroke="rgb(115, 161, 191)" stroke-width="1" d="M398.5000114366412,256.50000443309546C383.5000114366412,256.50000443309546,383.5000114366412,295.50000443309546,368.5000114366412,295.50000443309546L264.5000114366412,295.50000443309546"></path><path id="kity_path_79" fill="none" stroke="rgb(115, 161, 191)" stroke-width="1" d="M507.5000114366412,287.50000443309546C492.5000114366412,287.50000443309546,492.5000114366412,347.50000443309546,477.5000114366412,347.50000443309546L397.5000114366412,347.50000443309546"></path><path id="kity_path_81" fill="none" stroke="rgb(115, 161, 191)" stroke-width="1" d="M753.5000114366412,390.50000443309546A175,67,0,0,1,578.5000114366412,457.50000443309546"></path><path id="kity_path_83" fill="none" stroke="rgb(115, 161, 191)" stroke-width="1" d="M480.5000114366412,457.50000443309546C465.5000114366412,457.50000443309546,465.5000114366412,445.50000443309546,450.5000114366412,445.50000443309546L370.5000114366412,445.50000443309546"></path><path id="kity_path_85" fill="none" stroke="rgb(115, 161, 191)" stroke-width="1" d="M480.5000114366412,457.50000443309546C465.5000114366412,457.50000443309546,465.5000114366412,497.50000443309546,450.5000114366412,497.50000443309546L370.5000114366412,497.50000443309546"></path></g><g id="minder_node1"><path id="node_outline1" fill="rgb(115, 161, 191)" stroke="rgb(57, 80, 96)" d="M701.5000114366412,370.50000443309546h104a5,5,0,0,1,5,5v30a5,5,0,0,1,-5,5h-104a5,5,0,0,1,-5,-5v-30a5,5,0,0,1,5,-5z" stroke-width="3"></path><g id="node_text1" fill="white"><text id="kity_text_22" text-rendering="inherit" font-size="16" dy=".8em" y="380.10000439733267" x="720.5000114366412">产品开源</text></g></g><g id="kity_g_12"><path id="kity_path_13" fill="none" stroke="none" d="M720.5000114366412,390.50000443309546h0v0h0z"></path></g><g id="kity_g_14"><path id="kity_path_15" fill="none" stroke="none" d="M720.5000114366412,390.50000443309546h0v0h0z"></path><path id="kity_path_16" fill="none" stroke="none"></path></g><g id="minder_node2"><g id="node_expander9" style="cursor: pointer;"><path id="kity_path_224" fill="white" stroke="gray" d="M929.5000144615769,241.50000221282244A6,6,0,1,1,917.5000144615769,241.50000221282244A6,6,0,1,1,929.5000144615769,241.50000221282244"></path><path id="kity_path_225" fill="none" stroke="gray" d="M919.0000144615769,241.50000221282244L928.0000144615769,241.50000221282244"></path></g><path id="node_outline10" fill="rgb(238, 243, 246)" stroke="rgb(115, 161, 191)" d="M933.5000148639083,228.50000221282244h63a3,3,0,0,1,3,3v20a3,3,0,0,1,-3,3h-63a3,3,0,0,1,-3,-3v-20a3,3,0,0,1,3,-3z" stroke-width="1"></path><g id="node_text10" fill="black"><text id="kity_text_114" text-rendering="inherit" font-size="14" dy=".8em" y="232.40000218153" x="950.5000148639083">灵感</text></g></g><g id="minder_node3"><g id="node_expander8" style="cursor: pointer;"><path id="kity_path_221" fill="white" stroke="gray" d="M1039.5000161007047,241.50000221282244A6,6,0,1,1,1027.5000161007047,241.50000221282244A6,6,0,1,1,1039.5000161007047,241.50000221282244"></path><path id="kity_path_222" fill="none" stroke="gray" d="M1029.0000161007047,241.50000221282244L1038.0000161007047,241.50000221282244"></path></g><path id="node_outline9" fill="none" stroke="none" d="M1044.5000163391232,230.50000221282244h36a5,5,0,0,1,5,5v12a5,5,0,0,1,-5,5h-36a5,5,0,0,1,-5,-5v-12a5,5,0,0,1,5,-5z"></path><g id="node_text9" fill="black"><text id="kity_text_112" text-rendering="inherit" font-size="12" dy=".8em" y="233.70000218600035" x="1049.5000163391232">开源</text></g></g><g id="minder_node4"><g id="node_expander5" style="cursor: pointer;"><path id="kity_path_212" fill="white" stroke="gray" d="M1125.5000173822045,167.5000011101365A6,6,0,1,1,1113.5000173822045,167.5000011101365A6,6,0,1,1,1125.5000173822045,167.5000011101365"></path><path id="kity_path_213" fill="none" stroke="gray" d="M1115.0000173822045,167.5000011101365L1124.0000173822045,167.5000011101365"></path></g><path id="node_outline6" fill="none" stroke="none" d="M1130.500017620623,156.5000011101365h11a5,5,0,0,1,5,5v12a5,5,0,0,1,-5,5h-11a5,5,0,0,1,-5,-5v-12a5,5,0,0,1,5,-5z"></path><g id="node_text6" fill="black"><text id="kity_text_103" text-rendering="inherit" font-size="12" dy=".8em" y="159.70000108331442" x="1135.500017620623"> </text></g></g><g id="minder_node5"><g id="node_expander2" style="cursor: pointer;"><path id="kity_path_203" fill="white" stroke="gray" d="M1186.5000182911754,103.50000015646219A6,6,0,1,1,1174.5000182911754,103.50000015646219A6,6,0,1,1,1186.5000182911754,103.50000015646219"></path><path id="kity_path_204" fill="none" stroke="gray" d="M1176.0000182911754,103.50000015646219L1185.0000182911754,103.50000015646219"></path></g><path id="node_outline3" fill="none" stroke="none" d="M1191.500018529594,92.50000015646219h60a5,5,0,0,1,5,5v12a5,5,0,0,1,-5,5h-60a5,5,0,0,1,-5,-5v-12a5,5,0,0,1,5,-5z"></path><g id="node_text3" fill="black"><text id="kity_text_97" text-rendering="inherit" font-size="12" dy=".8em" y="95.7000001296401" x="1196.500018529594">开源软件</text></g></g><g id="minder_node6"><g id="node_expander1" display="none" style="cursor: pointer;"><path id="kity_path_200" fill="white" stroke="gray" d="M1296.500019930303,103.50000015646219A6,6,0,1,1,1284.500019930303,103.50000015646219A6,6,0,1,1,1296.500019930303,103.50000015646219"></path><path id="kity_path_201" fill="none" stroke="gray"></path></g><path id="node_outline2" fill="none" stroke="none" d="M1301.5000201687217,20.500000156462193h652a5,5,0,0,1,5,5v156a5,5,0,0,1,-5,5h-652a5,5,0,0,1,-5,-5v-156a5,5,0,0,1,5,-5z"></path><g id="node_text2" fill="black"><text id="kity_text_87" text-rendering="inherit" font-size="12" dy=".8em" font-weight="bold" y="23.700000129640102" x="1306.5000201687217">开源软件（英语：open source software，英文缩写</text><text id="kity_text_88" text-rendering="inherit" font-size="12" dy=".8em" font-weight="bold" y="41.7000001296401" x="1306.5000201687217">：OSS，中文也称：开放源代码软件）是一种源代码</text><text id="kity_text_89" text-rendering="inherit" font-size="12" dy=".8em" font-weight="bold" y="59.7000001296401" x="1306.5000201687217">可以任意获取的计算机</text><text id="kity_text_90" text-rendering="inherit" font-size="12" dy=".8em" font-weight="bold" y="77.7000001296401" x="1306.5000201687217">软件</text><text id="kity_text_91" text-rendering="inherit" font-size="12" dy=".8em" font-weight="bold" y="95.7000001296401" x="1306.5000201687217">，这种软件的版权</text><text id="kity_text_92" text-rendering="inherit" font-size="12" dy=".8em" font-weight="bold" y="113.7000001296401" x="1306.5000201687217">持有人在软件协议</text><text id="kity_text_93" text-rendering="inherit" font-size="12" dy=".8em" font-weight="bold" y="131.7000001296401" x="1306.5000201687217">的规定之下保留一部分权利并允许用户学习、修改、增进提高这款软件的质量。开源协议通常匹配开放源代码的定义</text><text id="kity_text_94" text-rendering="inherit" font-size="12" dy=".8em" font-weight="bold" y="149.7000001296401" x="1306.5000201687217">的要求。一些开源软件被发布到公有领域</text><text id="kity_text_95" text-rendering="inherit" font-size="12" dy=".8em" font-weight="bold" y="167.7000001296401" x="1306.5000201687217">。开源软件常被公开和合作地开发。</text></g><a id="kity_a_153" xmlns:xlink="http://www.w3.org/1999/xlink" xlink:href="https://zh.wikipedia.org/wiki/%E5%BC%80%E6%BA%90%E8%BD%AF%E4%BB%B6" target="_blank" xlink:title="https://zh.wikipedia.org/wiki/%E5%BC%80%E6%BA%90%E8%BD%AF%E4%BB%B6" style="cursor: pointer;"><path id="kity_path_155" fill="rgba(255, 255, 255, 0)" stroke="none" d="M1928.5000294074416,92.50000008195639h16a4,4,0,0,1,4,4v14a4,4,0,0,1,-4,4h-16a4,4,0,0,1,-4,-4v-14a4,4,0,0,1,4,-4z"></path><path id="kity_path_154" fill="#666" stroke="none" d="M1943.1140294074416,108.72400008195639h-1.278c-1.668,0,-3.07,-1.07,-3.599,-2.556h4.877c0.707,0,1.278,-0.571,1.278,-1.278V102.33400008195639c0,-0.707,-0.571,-1.278,-1.278,-1.278h-4.877C1938.7660294074417,99.57100008195638,1940.1680294074415,98.50000008195639,1941.8360294074416,98.50000008195639h1.278c2.116,0,3.834,1.716,3.834,3.834V104.89000008195639C1946.9480294074417,107.00800008195638,1945.2300294074416,108.72400008195639,1943.1140294074416,108.72400008195639zM1931.6120294074417,103.61200008195638c0,-0.707,0.573,-1.278,1.278,-1.278h7.668c0.707,0,1.278,0.571,1.278,1.278S1941.2650294074417,104.89000008195639,1940.5580294074416,104.89000008195639H1932.8900294074417C1932.1850294074416,104.89000008195639,1931.6120294074417,104.31900008195639,1931.6120294074417,103.61200008195638zM1929.0560294074417,102.33400008195639V104.89000008195639c0,0.707,0.573,1.278,1.278,1.278h4.877c-0.528,1.486,-1.932,2.556,-3.599,2.556H1930.3340294074417C1928.2160294074415,108.72400008195639,1926.5000294074416,107.00800008195638,1926.5000294074416,104.89000008195639V102.33400008195639C1926.5000294074416,100.21600008195638,1928.2160294074415,98.50000008195639,1930.3340294074417,98.50000008195639h1.278c1.667,0,3.071,1.071,3.599,2.556H1930.3340294074417C1929.6290294074415,101.05600008195638,1929.0560294074417,101.62700008195638,1929.0560294074417,102.33400008195639z"></path></a></g><g id="minder_node7"><g id="node_expander4" style="cursor: pointer;"><path id="kity_path_209" fill="white" stroke="gray" d="M1186.5000182911754,232.500002078712A6,6,0,1,1,1174.5000182911754,232.500002078712A6,6,0,1,1,1186.5000182911754,232.500002078712"></path><path id="kity_path_210" fill="none" stroke="gray" d="M1176.0000182911754,232.500002078712L1185.0000182911754,232.500002078712"></path></g><path id="node_outline5" fill="none" stroke="none" d="M1191.500018529594,221.500002078712h71a5,5,0,0,1,5,5v12a5,5,0,0,1,-5,5h-71a5,5,0,0,1,-5,-5v-12a5,5,0,0,1,5,-5z"></path><g id="node_text5" fill="black"><text id="kity_text_101" text-rendering="inherit" font-size="12" dy=".8em" y="224.7000020518899" x="1196.500018529594">开放源代码</text></g></g><g id="minder_node8"><g id="node_expander3" display="none" style="cursor: pointer;"><path id="kity_path_206" fill="white" stroke="gray" d="M1307.5000200942159,232.500002078712A6,6,0,1,1,1295.5000200942159,232.500002078712A6,6,0,1,1,1307.5000200942159,232.500002078712"></path><path id="kity_path_207" fill="none" stroke="gray"></path></g><path id="node_outline4" fill="none" stroke="none" d="M1312.5000203326344,216.500002078712h860a5,5,0,0,1,5,5v22a5,5,0,0,1,-5,5h-860a5,5,0,0,1,-5,-5v-22a5,5,0,0,1,5,-5z"></path><g id="node_text4" fill="black"><text id="kity_text_99" text-rendering="inherit" font-size="12" dy=".8em" font-weight="bold" y="224.7000020518899" x="1317.5000203326344">开放源代码（英语：Open Source）描述了一种在产品的出品和开发中提供最终源材料的做法。开放源代码使得生产模块、通信管道、交互社区获得改善。</text></g><a id="kity_a_156" xmlns:xlink="http://www.w3.org/1999/xlink" xlink:href="https://zh.wikipedia.org/wiki/%E9%96%8B%E6%94%BE%E5%85%A7%E5%AE%B9" target="_blank" xlink:title="https://zh.wikipedia.org/wiki/%E9%96%8B%E6%94%BE%E5%85%A7%E5%AE%B9" style="cursor: pointer;"><path id="kity_path_158" fill="rgba(255, 255, 255, 0)" stroke="none" d="M2147.500032670796,221.50000200420618h16a4,4,0,0,1,4,4v14a4,4,0,0,1,-4,4h-16a4,4,0,0,1,-4,-4v-14a4,4,0,0,1,4,-4z"></path><path id="kity_path_157" fill="#666" stroke="none" d="M2162.114032670796,237.72400200420617h-1.278c-1.668,0,-3.07,-1.07,-3.599,-2.556h4.877c0.707,0,1.278,-0.571,1.278,-1.278V231.33400200420618c0,-0.707,-0.571,-1.278,-1.278,-1.278h-4.877C2157.766032670796,228.57100200420618,2159.168032670796,227.50000200420618,2160.8360326707957,227.50000200420618h1.278c2.116,0,3.834,1.716,3.834,3.834V233.89000200420617C2165.948032670796,236.0080020042062,2164.230032670796,237.72400200420617,2162.114032670796,237.72400200420617zM2150.612032670796,232.61200200420618c0,-0.707,0.573,-1.278,1.278,-1.278h7.668c0.707,0,1.278,0.571,1.278,1.278S2160.265032670796,233.89000200420617,2159.558032670796,233.89000200420617H2151.890032670796C2151.185032670796,233.89000200420617,2150.612032670796,233.31900200420617,2150.612032670796,232.61200200420618zM2148.056032670796,231.33400200420618V233.89000200420617c0,0.707,0.573,1.278,1.278,1.278h4.877c-0.528,1.486,-1.932,2.556,-3.599,2.556H2149.3340326707958C2147.216032670796,237.72400200420617,2145.500032670796,236.0080020042062,2145.500032670796,233.89000200420617V231.33400200420618C2145.500032670796,229.2160020042062,2147.216032670796,227.50000200420618,2149.3340326707958,227.50000200420618h1.278c1.667,0,3.071,1.071,3.599,2.556H2149.3340326707958C2148.629032670796,230.0560020042062,2148.056032670796,230.6270020042062,2148.056032670796,231.33400200420618z"></path></a></g><g id="minder_node9"><g id="node_expander7" style="cursor: pointer;"><path id="kity_path_218" fill="white" stroke="gray" d="M1125.5000173822045,315.50000331550837A6,6,0,1,1,1113.5000173822045,315.50000331550837A6,6,0,1,1,1125.5000173822045,315.50000331550837"></path><path id="kity_path_219" fill="none" stroke="gray" d="M1115.0000173822045,315.50000331550837L1124.0000173822045,315.50000331550837"></path></g><path id="node_outline8" fill="none" stroke="none" d="M1130.500017620623,304.50000331550837h60a5,5,0,0,1,5,5v12a5,5,0,0,1,-5,5h-60a5,5,0,0,1,-5,-5v-12a5,5,0,0,1,5,-5z"></path><g id="node_text8" fill="black"><text id="kity_text_110" text-rendering="inherit" font-size="12" dy=".8em" y="307.7000032886863" x="1135.500017620623">开放内容</text></g></g><g id="minder_node10"><g id="node_expander6" display="none" style="cursor: pointer;"><path id="kity_path_215" fill="white" stroke="gray" d="M1235.5000190213323,315.50000331550837A6,6,0,1,1,1223.5000190213323,315.50000331550837A6,6,0,1,1,1235.5000190213323,315.50000331550837"></path><path id="kity_path_216" fill="none" stroke="gray"></path></g><path id="node_outline7" fill="none" stroke="none" d="M1240.5000192597508,277.50000331550837h514a5,5,0,0,1,5,5v66a5,5,0,0,1,-5,5h-514a5,5,0,0,1,-5,-5v-66a5,5,0,0,1,5,-5z"></path><g id="node_text7" fill="black"><text id="kity_text_105" text-rendering="inherit" font-size="12" dy=".8em" font-weight="bold" y="280.7000032886863" x="1245.5000192597508">开放内容（英语：Open content或OpenContent）是个新名词，于1998年由大卫·威立</text><text id="kity_text_106" text-rendering="inherit" font-size="12" dy=".8em" font-weight="bold" y="298.7000032886863" x="1245.5000192597508">（David Wiley）创立，[1]</text><text id="kity_text_107" text-rendering="inherit" font-size="12" dy=".8em" font-weight="bold" y="316.7000032886863" x="1245.5000192597508">系指他人可以复制或修改的原创著作。该名词源自于开放源码</text><text id="kity_text_108" text-rendering="inherit" font-size="12" dy=".8em" font-weight="bold" y="334.7000032886863" x="1245.5000192597508">与软件相关的概念。</text></g><a id="kity_a_159" xmlns:xlink="http://www.w3.org/1999/xlink" xlink:href="https://zh.wikipedia.org/wiki/%E9%96%8B%E6%94%BE%E5%85%A7%E5%AE%B9" target="_blank" xlink:title="https://zh.wikipedia.org/wiki/%E9%96%8B%E6%94%BE%E5%85%A7%E5%AE%B9" style="cursor: pointer;"><path id="kity_path_161" fill="rgba(255, 255, 255, 0)" stroke="none" d="M1729.5000264421105,304.50000324100256h16a4,4,0,0,1,4,4v14a4,4,0,0,1,-4,4h-16a4,4,0,0,1,-4,-4v-14a4,4,0,0,1,4,-4z"></path><path id="kity_path_160" fill="#666" stroke="none" d="M1744.1140264421106,320.72400324100255h-1.278c-1.668,0,-3.07,-1.07,-3.599,-2.556h4.877c0.707,0,1.278,-0.571,1.278,-1.278V314.33400324100256c0,-0.707,-0.571,-1.278,-1.278,-1.278h-4.877C1739.7660264421106,311.5710032410026,1741.1680264421104,310.50000324100256,1742.8360264421106,310.50000324100256h1.278c2.116,0,3.834,1.716,3.834,3.834V316.89000324100255C1747.9480264421106,319.00800324100254,1746.2300264421106,320.72400324100255,1744.1140264421106,320.72400324100255zM1732.6120264421106,315.6120032410026c0,-0.707,0.573,-1.278,1.278,-1.278h7.668c0.707,0,1.278,0.571,1.278,1.278S1742.2650264421106,316.89000324100255,1741.5580264421105,316.89000324100255H1733.8900264421106C1733.1850264421105,316.89000324100255,1732.6120264421106,316.3190032410026,1732.6120264421106,315.6120032410026zM1730.0560264421106,314.33400324100256V316.89000324100255c0,0.707,0.573,1.278,1.278,1.278h4.877c-0.528,1.486,-1.932,2.556,-3.599,2.556H1731.3340264421106C1729.2160264421104,320.72400324100255,1727.5000264421105,319.00800324100254,1727.5000264421105,316.89000324100255V314.33400324100256C1727.5000264421105,312.21600324100257,1729.2160264421104,310.50000324100256,1731.3340264421106,310.50000324100256h1.278c1.667,0,3.071,1.071,3.599,2.556H1731.3340264421106C1730.6290264421104,313.05600324100254,1730.0560264421106,313.62700324100257,1730.0560264421106,314.33400324100256z"></path></a></g><g id="minder_node11"><g id="node_expander11" style="cursor: pointer;"><path id="kity_path_230" fill="white" stroke="gray" d="M929.5000144615769,406.50000467151403A6,6,0,1,1,917.5000144615769,406.50000467151403A6,6,0,1,1,929.5000144615769,406.50000467151403"></path><path id="kity_path_231" fill="none" stroke="gray" d="M919.0000144615769,406.50000467151403L928.0000144615769,406.50000467151403"></path></g><path id="node_outline12" fill="rgb(238, 243, 246)" stroke="rgb(115, 161, 191)" d="M933.5000148639083,393.50000467151403h63a3,3,0,0,1,3,3v20a3,3,0,0,1,-3,3h-63a3,3,0,0,1,-3,-3v-20a3,3,0,0,1,3,-3z" stroke-width="1"></path><g id="node_text12" fill="black"><text id="kity_text_118" text-rendering="inherit" font-size="14" dy=".8em" y="397.4000046402216" x="950.5000148639083">核心</text></g></g><g id="minder_node12"><g id="node_expander10" display="none" style="cursor: pointer;"><path id="kity_path_227" fill="white" stroke="gray" d="M1039.5000161007047,406.50000467151403A6,6,0,1,1,1027.5000161007047,406.50000467151403A6,6,0,1,1,1039.5000161007047,406.50000467151403"></path><path id="kity_path_228" fill="none" stroke="gray"></path></g><path id="node_outline11" fill="none" stroke="none" d="M1044.5000163391232,395.50000467151403h107a5,5,0,0,1,5,5v12a5,5,0,0,1,-5,5h-107a5,5,0,0,1,-5,-5v-12a5,5,0,0,1,5,-5z"></path><g id="node_text11" fill="black"><text id="kity_text_116" text-rendering="inherit" font-size="12" dy=".8em" y="398.70000464469194" x="1049.5000163391232">自由，协作，进化</text></g></g><g id="minder_node13"><g id="node_expander17" style="cursor: pointer;"><path id="kity_path_248" fill="white" stroke="gray" d="M929.5000144615769,539.5000066533685A6,6,0,1,1,917.5000144615769,539.5000066533685A6,6,0,1,1,929.5000144615769,539.5000066533685"></path><path id="kity_path_249" fill="none" stroke="gray" d="M919.0000144615769,539.5000066533685L928.0000144615769,539.5000066533685"></path></g><path id="node_outline18" fill="rgb(238, 243, 246)" stroke="rgb(115, 161, 191)" d="M933.5000148639083,526.5000066533685h62a3,3,0,0,1,3,3v20a3,3,0,0,1,-3,3h-62a3,3,0,0,1,-3,-3v-20a3,3,0,0,1,3,-3z" stroke-width="1"></path><g id="node_text18" fill="black"><text id="kity_text_130" text-rendering="inherit" font-size="14" dy=".8em" y="530.400006622076" x="950.5000148639083">案例</text></g></g><g id="minder_node14"><g id="node_expander13" style="cursor: pointer;"><path id="kity_path_236" fill="white" stroke="gray" d="M1038.5000160858035,475.50000569969416A6,6,0,1,1,1026.5000160858035,475.50000569969416A6,6,0,1,1,1038.5000160858035,475.50000569969416"></path><path id="kity_path_237" fill="none" stroke="gray" d="M1028.0000160858035,475.50000569969416L1037.0000160858035,475.50000569969416"></path></g><path id="node_outline14" fill="none" stroke="none" d="M1043.500016324222,464.50000569969416h51a5,5,0,0,1,5,5v12a5,5,0,0,1,-5,5h-51a5,5,0,0,1,-5,-5v-12a5,5,0,0,1,5,-5z"></path><g id="node_text14" fill="black"><text id="kity_text_122" text-rendering="inherit" font-size="12" dy=".8em" y="467.70000567287207" x="1048.500016324222">GitHub</text></g></g><g id="minder_node15"><g id="node_expander12" display="none" style="cursor: pointer;"><path id="kity_path_233" fill="white" stroke="gray" d="M1139.5000175908208,475.50000569969416A6,6,0,1,1,1127.5000175908208,475.50000569969416A6,6,0,1,1,1139.5000175908208,475.50000569969416"></path><path id="kity_path_234" fill="none" stroke="gray"></path></g><path id="node_outline13" fill="none" stroke="none" d="M1144.5000178292394,459.50000569969416h89a5,5,0,0,1,5,5v22a5,5,0,0,1,-5,5h-89a5,5,0,0,1,-5,-5v-22a5,5,0,0,1,5,-5z"></path><g id="node_text13" fill="black"><text id="kity_text_120" text-rendering="inherit" font-size="12" dy=".8em" y="467.70000567287207" x="1149.5000178292394">维基资料</text></g><a id="kity_a_162" xmlns:xlink="http://www.w3.org/1999/xlink" xlink:href="https://zh.wikipedia.org/wiki/GitHub" target="_blank" xlink:title="https://zh.wikipedia.org/wiki/GitHub" style="cursor: pointer;"><path id="kity_path_164" fill="rgba(255, 255, 255, 0)" stroke="none" d="M1208.5000186786056,464.50000562518835h16a4,4,0,0,1,4,4v14a4,4,0,0,1,-4,4h-16a4,4,0,0,1,-4,-4v-14a4,4,0,0,1,4,-4z"></path><path id="kity_path_163" fill="#666" stroke="none" d="M1223.1140186786056,480.72400562518834h-1.278c-1.668,0,-3.07,-1.07,-3.599,-2.556h4.877c0.707,0,1.278,-0.571,1.278,-1.278V474.33400562518835c0,-0.707,-0.571,-1.278,-1.278,-1.278h-4.877C1218.7660186786056,471.5710056251884,1220.1680186786054,470.50000562518835,1221.8360186786056,470.50000562518835h1.278c2.116,0,3.834,1.716,3.834,3.834V476.89000562518834C1226.9480186786056,479.00800562518833,1225.2300186786056,480.72400562518834,1223.1140186786056,480.72400562518834zM1211.6120186786056,475.6120056251884c0,-0.707,0.573,-1.278,1.278,-1.278h7.668c0.707,0,1.278,0.571,1.278,1.278S1221.2650186786057,476.89000562518834,1220.5580186786055,476.89000562518834H1212.8900186786057C1212.1850186786055,476.89000562518834,1211.6120186786056,476.31900562518837,1211.6120186786056,475.6120056251884zM1209.0560186786056,474.33400562518835V476.89000562518834c0,0.707,0.573,1.278,1.278,1.278h4.877c-0.528,1.486,-1.932,2.556,-3.599,2.556H1210.3340186786056C1208.2160186786055,480.72400562518834,1206.5000186786056,479.00800562518833,1206.5000186786056,476.89000562518834V474.33400562518835C1206.5000186786056,472.21600562518836,1208.2160186786055,470.50000562518835,1210.3340186786056,470.50000562518835h1.278c1.667,0,3.071,1.071,3.599,2.556H1210.3340186786056C1209.6290186786055,473.05600562518833,1209.0560186786056,473.62700562518836,1209.0560186786056,474.33400562518835z"></path></a></g><g id="minder_node16"><g id="node_expander15" style="cursor: pointer;"><path id="kity_path_242" fill="white" stroke="gray" d="M1038.5000160858035,537.5000066235662A6,6,0,1,1,1026.5000160858035,537.5000066235662A6,6,0,1,1,1038.5000160858035,537.5000066235662"></path><path id="kity_path_243" fill="none" stroke="gray" d="M1028.0000160858035,537.5000066235662L1037.0000160858035,537.5000066235662"></path></g><path id="node_outline16" fill="none" stroke="none" d="M1043.500016324222,526.5000066235662h72a5,5,0,0,1,5,5v12a5,5,0,0,1,-5,5h-72a5,5,0,0,1,-5,-5v-12a5,5,0,0,1,5,-5z"></path><g id="node_text16" fill="black"><text id="kity_text_126" text-rendering="inherit" font-size="12" dy=".8em" y="529.7000065967441" x="1048.500016324222">人人字幕组</text></g></g><g id="minder_node17"><g id="node_expander14" display="none" style="cursor: pointer;"><path id="kity_path_239" fill="white" stroke="gray" d="M1160.5000179037452,537.5000066235662A6,6,0,1,1,1148.5000179037452,537.5000066235662A6,6,0,1,1,1160.5000179037452,537.5000066235662"></path><path id="kity_path_240" fill="none" stroke="gray"></path></g><path id="node_outline15" fill="none" stroke="none" d="M1165.5000181421638,521.5000066235662h112a5,5,0,0,1,5,5v22a5,5,0,0,1,-5,5h-112a5,5,0,0,1,-5,-5v-22a5,5,0,0,1,5,-5z"></path><g id="node_text15" fill="black"><text id="kity_text_124" text-rendering="inherit" font-size="12" dy=".8em" y="529.7000065967441" x="1170.5000181421638">百度百科资料</text></g><a id="kity_a_165" xmlns:xlink="http://www.w3.org/1999/xlink" xlink:href="http://baike.baidu.com/item/%E4%BA%BA%E4%BA%BA%E5%BD%B1%E8%A7%86%E5%AD%97%E5%B9%95%E7%BB%84?fromtitle=%E4%BA%BA%E4%BA%BA%E5%AD%97%E5%B9%95&amp;type=syn&amp;sefr=cr" target="_blank" xlink:title="http://baike.baidu.com/item/%E4%BA%BA%E4%BA%BA%E5%BD%B1%E8%A7%86%E5%AD%97%E5%B9%95%E7%BB%84?fromtitle=%E4%BA%BA%E4%BA%BA%E5%AD%97%E5%B9%95&amp;type=syn&amp;sefr=cr" style="cursor: pointer;"><path id="kity_path_167" fill="rgba(255, 255, 255, 0)" stroke="none" d="M1252.5000193342566,526.5000065490603h16a4,4,0,0,1,4,4v14a4,4,0,0,1,-4,4h-16a4,4,0,0,1,-4,-4v-14a4,4,0,0,1,4,-4z"></path><path id="kity_path_166" fill="#666" stroke="none" d="M1267.1140193342567,542.7240065490604h-1.278c-1.668,0,-3.07,-1.07,-3.599,-2.556h4.877c0.707,0,1.278,-0.571,1.278,-1.278V536.3340065490603c0,-0.707,-0.571,-1.278,-1.278,-1.278h-4.877C1262.7660193342567,533.5710065490604,1264.1680193342565,532.5000065490603,1265.8360193342567,532.5000065490603h1.278c2.116,0,3.834,1.716,3.834,3.834V538.8900065490603C1270.9480193342567,541.0080065490604,1269.2300193342567,542.7240065490604,1267.1140193342567,542.7240065490604zM1255.6120193342567,537.6120065490603c0,-0.707,0.573,-1.278,1.278,-1.278h7.668c0.707,0,1.278,0.571,1.278,1.278S1265.2650193342567,538.8900065490603,1264.5580193342566,538.8900065490603H1256.8900193342567C1256.1850193342566,538.8900065490603,1255.6120193342567,538.3190065490603,1255.6120193342567,537.6120065490603zM1253.0560193342567,536.3340065490603V538.8900065490603c0,0.707,0.573,1.278,1.278,1.278h4.877c-0.528,1.486,-1.932,2.556,-3.599,2.556H1254.3340193342567C1252.2160193342565,542.7240065490604,1250.5000193342566,541.0080065490604,1250.5000193342566,538.8900065490603V536.3340065490603C1250.5000193342566,534.2160065490604,1252.2160193342565,532.5000065490603,1254.3340193342567,532.5000065490603h1.278c1.667,0,3.071,1.071,3.599,2.556H1254.3340193342567C1253.6290193342566,535.0560065490604,1253.0560193342567,535.6270065490603,1253.0560193342567,536.3340065490603z"></path></a></g><g id="minder_node18"><g id="node_expander16" display="none" style="cursor: pointer;"><path id="kity_path_245" fill="white" stroke="gray" d="M1038.5000160858035,599.5000075474381A6,6,0,1,1,1026.5000160858035,599.5000075474381A6,6,0,1,1,1038.5000160858035,599.5000075474381"></path><path id="kity_path_246" fill="none" stroke="gray"></path></g><path id="node_outline17" fill="none" stroke="none" d="M1043.500016324222,583.5000075474381h173a5,5,0,0,1,5,5v22a5,5,0,0,1,-5,5h-173a5,5,0,0,1,-5,-5v-22a5,5,0,0,1,5,-5z"></path><g id="node_text17" fill="black"><text id="kity_text_128" text-rendering="inherit" font-size="12" dy=".8em" y="591.700007520616" x="1048.500016324222">合作式软件开发管理系统</text></g><a id="kity_a_168" xmlns:xlink="http://www.w3.org/1999/xlink" xlink:href="https://zh.wikipedia.org/wiki/SourceForge" target="_blank" xlink:title="https://zh.wikipedia.org/wiki/SourceForge" style="cursor: pointer;"><path id="kity_path_170" fill="rgba(255, 255, 255, 0)" stroke="none" d="M1191.5000184252858,588.5000074729323h16a4,4,0,0,1,4,4v14a4,4,0,0,1,-4,4h-16a4,4,0,0,1,-4,-4v-14a4,4,0,0,1,4,-4z"></path><path id="kity_path_169" fill="#666" stroke="none" d="M1206.1140184252858,604.7240074729324h-1.278c-1.668,0,-3.07,-1.07,-3.599,-2.556h4.877c0.707,0,1.278,-0.571,1.278,-1.278V598.3340074729323c0,-0.707,-0.571,-1.278,-1.278,-1.278h-4.877C1201.766018425286,595.5710074729324,1203.1680184252857,594.5000074729323,1204.8360184252858,594.5000074729323h1.278c2.116,0,3.834,1.716,3.834,3.834V600.8900074729323C1209.948018425286,603.0080074729324,1208.2300184252858,604.7240074729324,1206.1140184252858,604.7240074729324zM1194.612018425286,599.6120074729323c0,-0.707,0.573,-1.278,1.278,-1.278h7.668c0.707,0,1.278,0.571,1.278,1.278S1204.265018425286,600.8900074729323,1203.5580184252858,600.8900074729323H1195.890018425286C1195.1850184252858,600.8900074729323,1194.612018425286,600.3190074729323,1194.612018425286,599.6120074729323zM1192.0560184252859,598.3340074729323V600.8900074729323c0,0.707,0.573,1.278,1.278,1.278h4.877c-0.528,1.486,-1.932,2.556,-3.599,2.556H1193.3340184252859C1191.2160184252857,604.7240074729324,1189.5000184252858,603.0080074729324,1189.5000184252858,600.8900074729323V598.3340074729323C1189.5000184252858,596.2160074729323,1191.2160184252857,594.5000074729323,1193.3340184252859,594.5000074729323h1.278c1.667,0,3.071,1.071,3.599,2.556H1193.3340184252859C1192.6290184252857,597.0560074729324,1192.0560184252859,597.6270074729323,1192.0560184252859,598.3340074729323z"></path></a></g><g id="minder_node19"><g id="node_expander25" style="cursor: pointer;"><path id="kity_path_272" fill="white" stroke="gray" d="M590.5000094100833,287.50000289827585A6,6,0,1,1,578.5000094100833,287.50000289827585A6,6,0,1,1,590.5000094100833,287.50000289827585"></path><path id="kity_path_273" fill="none" stroke="gray" d="M580.0000094100833,287.50000289827585L589.0000094100833,287.50000289827585"></path></g><path id="node_outline26" fill="rgb(238, 243, 246)" stroke="rgb(115, 161, 191)" d="M510.5000085607171,274.50000289827585h64a3,3,0,0,1,3,3v20a3,3,0,0,1,-3,3h-64a3,3,0,0,1,-3,-3v-20a3,3,0,0,1,3,-3z" stroke-width="1"></path><g id="node_text26" fill="black"><text id="kity_text_146" text-rendering="inherit" font-size="14" dy=".8em" y="278.4000028669834" x="527.5000085607171">流程</text></g></g><g id="minder_node20"><g id="node_expander23" style="cursor: pointer;"><path id="kity_path_266" fill="white" stroke="gray" d="M479.5000077560544,242.5000022277236A6,6,0,1,1,467.5000077560544,242.5000022277236A6,6,0,1,1,479.5000077560544,242.5000022277236"></path><path id="kity_path_267" fill="none" stroke="gray" d="M469.0000077560544,242.5000022277236L478.0000077560544,242.5000022277236"></path></g><path id="node_outline24" fill="none" stroke="none" d="M403.5000067874789,231.5000022277236h59a5,5,0,0,1,5,5v12a5,5,0,0,1,-5,5h-59a5,5,0,0,1,-5,-5v-12a5,5,0,0,1,5,-5z"></path><g id="node_text24" fill="black"><text id="kity_text_142" text-rendering="inherit" font-size="12" dy=".8em" y="234.7000022009015" x="408.5000067874789">概念发布</text></g></g><g id="minder_node21"><g id="node_expander21" style="cursor: pointer;"><path id="kity_path_260" fill="white" stroke="gray" d="M370.50000613182783,203.5000016465783A6,6,0,1,1,358.50000613182783,203.5000016465783A6,6,0,1,1,370.50000613182783,203.5000016465783"></path><path id="kity_path_261" fill="none" stroke="gray" d="M360.00000613182783,203.5000016465783L369.00000613182783,203.5000016465783"></path></g><path id="node_outline22" fill="none" stroke="none" d="M269.5000047907233,192.5000016465783h84a5,5,0,0,1,5,5v12a5,5,0,0,1,-5,5h-84a5,5,0,0,1,-5,-5v-12a5,5,0,0,1,5,-5z"></path><g id="node_text22" fill="black"><text id="kity_text_138" text-rendering="inherit" font-size="12" dy=".8em" y="195.70000161975622" x="274.5000047907233">形成策划方案</text></g></g><g id="minder_node22"><g id="node_expander20" style="cursor: pointer;"><path id="kity_path_257" fill="white" stroke="gray" d="M236.50000413507223,203.5000016465783A6,6,0,1,1,224.50000413507223,203.5000016465783A6,6,0,1,1,236.50000413507223,203.5000016465783"></path><path id="kity_path_258" fill="none" stroke="gray" d="M226.00000413507223,203.5000016465783L235.00000413507223,203.5000016465783"></path></g><path id="node_outline21" fill="none" stroke="none" d="M135.50000279396772,192.5000016465783h84a5,5,0,0,1,5,5v12a5,5,0,0,1,-5,5h-84a5,5,0,0,1,-5,-5v-12a5,5,0,0,1,5,-5z"></path><g id="node_text21" fill="black"><text id="kity_text_136" text-rendering="inherit" font-size="12" dy=".8em" y="195.70000161975622" x="140.50000279396772">形成执行方案</text></g></g><g id="minder_node23"><g id="node_expander18" display="none" style="cursor: pointer;"><path id="kity_path_251" fill="white" stroke="gray" d="M102.50000213831663,177.50000125914812A6,6,0,1,1,90.50000213831663,177.50000125914812A6,6,0,1,1,102.50000213831663,177.50000125914812"></path><path id="kity_path_252" fill="none" stroke="gray"></path></g><path id="node_outline19" fill="none" stroke="none" d="M26.500001169741154,166.50000125914812h59a5,5,0,0,1,5,5v12a5,5,0,0,1,-5,5h-59a5,5,0,0,1,-5,-5v-12a5,5,0,0,1,5,-5z"></path><g id="node_text19" fill="black"><text id="kity_text_132" text-rendering="inherit" font-size="12" dy=".8em" y="169.70000123232603" x="31.500001169741154">形成产品</text></g></g><g id="minder_node24"><g id="node_expander19" display="none" style="cursor: pointer;"><path id="kity_path_254" fill="white" stroke="gray" d="M102.50000213831663,229.5000020340085A6,6,0,1,1,90.50000213831663,229.5000020340085A6,6,0,1,1,102.50000213831663,229.5000020340085"></path><path id="kity_path_255" fill="none" stroke="gray"></path></g><path id="node_outline20" fill="none" stroke="none" d="M25.500001154839993,218.5000020340085h60a5,5,0,0,1,5,5v12a5,5,0,0,1,-5,5h-60a5,5,0,0,1,-5,-5v-12a5,5,0,0,1,5,-5z"></path><g id="node_text20" fill="black"><text id="kity_text_134" text-rendering="inherit" font-size="12" dy=".8em" y="221.7000020071864" x="30.500001154839993">产品迭代</text></g></g><g id="minder_node25"><g id="node_expander22" display="none" style="cursor: pointer;"><path id="kity_path_263" fill="white" stroke="gray" d="M370.50000613182783,281.5000028088689A6,6,0,1,1,358.50000613182783,281.5000028088689A6,6,0,1,1,370.50000613182783,281.5000028088689"></path><path id="kity_path_264" fill="none" stroke="gray"></path></g><path id="node_outline23" fill="none" stroke="none" d="M269.5000047907233,270.5000028088689h84a5,5,0,0,1,5,5v12a5,5,0,0,1,-5,5h-84a5,5,0,0,1,-5,-5v-12a5,5,0,0,1,5,-5z"></path><g id="node_text23" fill="black"><text id="kity_text_140" text-rendering="inherit" font-size="12" dy=".8em" y="273.7000027820468" x="274.5000047907233">策划方案迭代</text></g></g><g id="minder_node26"><g id="node_expander24" display="none" style="cursor: pointer;"><path id="kity_path_269" fill="white" stroke="gray" d="M479.5000077560544,333.50000358372927A6,6,0,1,1,467.5000077560544,333.50000358372927A6,6,0,1,1,479.5000077560544,333.50000358372927"></path><path id="kity_path_270" fill="none" stroke="gray"></path></g><path id="node_outline25" fill="none" stroke="none" d="M402.50000677257776,322.50000358372927h60a5,5,0,0,1,5,5v12a5,5,0,0,1,-5,5h-60a5,5,0,0,1,-5,-5v-12a5,5,0,0,1,5,-5z"></path><g id="node_text25" fill="black"><text id="kity_text_144" text-rendering="inherit" font-size="12" dy=".8em" y="325.7000035569072" x="407.50000677257776">概念迭代</text></g></g><g id="minder_node27"><g id="node_expander28" style="cursor: pointer;"><path id="kity_path_281" fill="white" stroke="gray" d="M589.5000093951821,457.50000543147326A6,6,0,1,1,577.5000093951821,457.50000543147326A6,6,0,1,1,589.5000093951821,457.50000543147326"></path><path id="kity_path_282" fill="none" stroke="gray" d="M579.0000093951821,457.50000543147326L588.0000093951821,457.50000543147326"></path></g><path id="node_outline29" fill="rgb(238, 243, 246)" stroke="rgb(115, 161, 191)" d="M483.50000815838575,444.50000543147326h90a3,3,0,0,1,3,3v20a3,3,0,0,1,-3,3h-90a3,3,0,0,1,-3,-3v-20a3,3,0,0,1,3,-3z" stroke-width="1"></path><g id="node_text29" fill="black"><text id="kity_text_152" text-rendering="inherit" font-size="14" dy=".8em" y="448.4000054001808" x="500.50000815838575">参与角色</text></g></g><g id="minder_node28"><g id="node_expander26" display="none" style="cursor: pointer;"><path id="kity_path_275" fill="white" stroke="gray" d="M452.50000735372305,431.50000504404306A6,6,0,1,1,440.50000735372305,431.50000504404306A6,6,0,1,1,452.50000735372305,431.50000504404306"></path><path id="kity_path_276" fill="none" stroke="gray"></path></g><path id="node_outline27" fill="none" stroke="none" d="M375.5000063702464,420.50000504404306h60a5,5,0,0,1,5,5v12a5,5,0,0,1,-5,5h-60a5,5,0,0,1,-5,-5v-12a5,5,0,0,1,5,-5z"></path><g id="node_text27" fill="black"><text id="kity_text_148" text-rendering="inherit" font-size="12" dy=".8em" y="423.700005017221" x="380.5000063702464">开源平台</text></g></g><g id="minder_node29"><g id="node_expander27" display="none" style="cursor: pointer;"><path id="kity_path_278" fill="white" stroke="gray" d="M452.50000735372305,483.50000581890345A6,6,0,1,1,440.50000735372305,483.50000581890345A6,6,0,1,1,452.50000735372305,483.50000581890345"></path><path id="kity_path_279" fill="none" stroke="gray"></path></g><path id="node_outline28" fill="none" stroke="none" d="M375.5000063702464,472.50000581890345h60a5,5,0,0,1,5,5v12a5,5,0,0,1,-5,5h-60a5,5,0,0,1,-5,-5v-12a5,5,0,0,1,5,-5z"></path><g id="node_text28" fill="black"><text id="kity_text_150" text-rendering="inherit" font-size="12" dy=".8em" y="475.70000579208136" x="380.5000063702464">产品经理</text></g></g></g></g></svg>